# xmcd
#
# Track frame offsets:
#	150
#	19892
#	40755
#	52679
#	70270
#	86224
#	104337
#	122303
#	139434
#	152451
#	167771
#
# Disc length: 2435 seconds
#
# Revision: 0
# Processed by: cddbd v1.5.2PL0 Copyright (c) Steve Scherf et al.
# Submitted via: EZCDAudioConverter 7.0.8.1
#
DISCID=8809810b
DTITLE=Hier Geht Was - Huhn oder Ei? - Die Zweite
DYEAR=2017
DGENRE=Blues and Platt
TTITLE0=Wachstumsbeschleunigung
TTITLE1=Huhn oder Ei?
TTITLE2=Helmut
TTITLE3=Geht schon so
TTITLE4=Hier geht was
TTITLE5=Blumen
TTITLE6=Nimm Dich nicht so wichtig
TTITLE7=Queen von Mennrathhött
TTITLE8=Da brennt nix an
TTITLE9=Fauler Zauber
TTITLE10=Wurmloch
EXTD=
EXTT0=
EXTT1=
EXTT2=
EXTT3=
EXTT4=
EXTT5=
EXTT6=
EXTT7=
EXTT8=
EXTT9=
EXTT10=
PLAYORDER=
